HIERARCHY
ROOT Hips
{
	OFFSET 0.000000 0.000000 0.000000
	CHANNELS 6 Xposition Yposition Zposition Zrotation Yrotation Xrotation 
	JOINT LHipJoint
	{
		OFFSET 0.000000 0.000000 0.000000
		CHANNELS 3 Zrotation Yrotation Xrotation
		JOINT LeftUpLeg
		{
			OFFSET 1.363060 -1.794630 0.839290
			CHANNELS 3 Zrotation Yrotation Xrotation
			JOINT LeftLeg
			{
				OFFSET 2.448110 -6.726130 0.000000
				CHANNELS 3 Zrotation Yrotation Xrotation
				JOINT LeftFoot
				{
					OFFSET 2.562200 -7.039590 0.000000
					CHANNELS 3 Zrotation Yrotation Xrotation
					JOINT LeftToeBase
					{
						OFFSET 0.157640 -0.433110 2.322550
						CHANNELS 3 Zrotation Yrotation Xrotation
						End Site
						{
							OFFSET 0.000000 0.000000 0.000000
						}
					}
				}
			}
		}
	}
	JOINT RHipJoint
	{
		OFFSET 0.000000 0.000000 0.000000
		CHANNELS 3 Zrotation Yrotation Xrotation
		JOINT RightUpLeg
		{
			OFFSET -1.305520 -1.794630 0.839290
			CHANNELS 3 Zrotation Yrotation Xrotation
			JOINT RightLeg
			{
				OFFSET -2.542530 -6.985550 0.000000
				CHANNELS 3 Zrotation Yrotation Xrotation
				JOINT RightFoot
				{
					OFFSET -2.568260 -7.056230 0.000000
					CHANNELS 3 Zrotation Yrotation Xrotation
					JOINT RightToeBase
					{
						OFFSET -0.164730 -0.452590 2.363150
						CHANNELS 3 Zrotation Yrotation Xrotation
						End Site
						{
							OFFSET 0.000000 0.000000 0.000000
						}
					}
				}
			}
		}
	}
	JOINT LowerBack
	{
		OFFSET 0.000000 0.000000 0.000000
		CHANNELS 3 Zrotation Yrotation Xrotation
		JOINT Spine
		{
			OFFSET 0.028270 2.035590 -0.193380
			CHANNELS 3 Zrotation Yrotation Xrotation
			JOINT Spine1
			{
				OFFSET 0.056720 2.048850 -0.042750
				CHANNELS 3 Zrotation Yrotation Xrotation
				JOINT Neck
				{
					OFFSET 0.000000 0.000000 0.000000
					CHANNELS 3 Zrotation Yrotation Xrotation
					JOINT Neck1
					{
						OFFSET -0.054170 1.746240 0.172020
						CHANNELS 3 Zrotation Yrotation Xrotation
						JOINT Head
						{
							OFFSET 0.104070 1.761360 -0.123970
							CHANNELS 3 Zrotation Yrotation Xrotation
							End Site
							{
								OFFSET 0.000000 0.000000 0.000000
							}
						}
					}
				}
				JOINT LeftShoulder
				{
					OFFSET 0.000000 0.000000 0.000000
					CHANNELS 3 Zrotation Yrotation Xrotation
					JOINT LeftArm
					{
						OFFSET 3.362410 1.200890 -0.311210
						CHANNELS 3 Zrotation Yrotation Xrotation
						JOINT LeftForeArm
						{
							OFFSET 4.983000 -0.000000 -0.000000
							CHANNELS 3 Zrotation Yrotation Xrotation
							JOINT LeftHand
							{
								OFFSET 3.483560 -0.000000 -0.000000
								CHANNELS 3 Zrotation Yrotation Xrotation
								JOINT LeftFingerBase
								{
									OFFSET 0.000000 0.000000 0.000000
									CHANNELS 3 Zrotation Yrotation Xrotation
									JOINT LeftHandIndex1
									{
										OFFSET 0.715260 -0.000000 -0.000000
										CHANNELS 3 Zrotation Yrotation Xrotation
										End Site
										{
											OFFSET 0.000000 0.000000 0.000000
										}
									}
								}
								JOINT LThumb
								{
									OFFSET 0.000000 0.000000 0.000000
									CHANNELS 3 Zrotation Yrotation Xrotation
									End Site
									{
										OFFSET 0.000000 0.000000 0.000000
									}
								}
							}
						}
					}
				}
				JOINT RightShoulder
				{
					OFFSET 0.000000 0.000000 0.000000
					CHANNELS 3 Zrotation Yrotation Xrotation
					JOINT RightArm
					{
						OFFSET -3.136600 1.374050 -0.404650
						CHANNELS 3 Zrotation Yrotation Xrotation
						JOINT RightForeArm
						{
							OFFSET -5.241900 -0.000000 -0.000000
							CHANNELS 3 Zrotation Yrotation Xrotation
							JOINT RightHand
							{
								OFFSET -3.444170 -0.000000 -0.000000
								CHANNELS 3 Zrotation Yrotation Xrotation
								JOINT RightFingerBase
								{
									OFFSET 0.000000 0.000000 0.000000
									CHANNELS 3 Zrotation Yrotation Xrotation
									JOINT RightHandIndex1
									{
										OFFSET -0.622530 -0.000000 -0.000000
										CHANNELS 3 Zrotation Yrotation Xrotation
										End Site
										{
											OFFSET 0.000000 0.000000 0.000000
										}
									}
								}
								JOINT RThumb
								{
									OFFSET 0.000000 0.000000 0.000000
									CHANNELS 3 Zrotation Yrotation Xrotation
									End Site
									{
										OFFSET 0.000000 0.000000 0.000000
									}
								}
							}
						}
					}
				}
			}
		}
	}
}
MOTION
Frames: 6
Frame Time: 0.008333
22.441855 16.260911 4.669070 14.478386 -83.825622 -9.032503 -10.513155 5.096864 0.941381 -2.577570 7.900738 18.470896 -1.197119 0.631748 9.517023 0.760633 5.530918 1.301962 0.862100 0.000000 -74.867300 9.185925 0.045446 1.383873 10.357414 -10.405124 -45.341271 2.167436 -2.088169 29.537681 -1.514694 -6.409990 -2.128576 -1.313900 -0.000000 -35.224100 7.013961 -5.295995 -4.228990 1.182709 -5.953336 -2.857739 -5.469194 -5.867065 3.750519 10.950058 -23.097624 -12.551800 -2.220578 -0.104394 -1.252135 0.000000 0.000000 0.000000 3.154486 13.491977 2.701430 -24.274575 -7.634975 -6.244871 -2.792053 -37.400614 0.005033 -1.554777 0.679239 -0.005036 -0.163858 0.163958 -0.000000 0.000000 0.000000 0.000000 0.000000 0.000000 0.000000 18.450016 -22.194850 -0.057694 80.944363 -22.934178 6.332568 3.987010 31.061641 -0.004158 12.373827 -0.158478 -0.019298 -0.008166 0.019525 -0.000000 0.000000 0.000000 0.000000 0.000000 0.000000 0.000000 
22.264170 16.269822 4.635735 13.197338 -83.788592 -7.916635 -10.531185 5.218008 1.018923 -2.092400 7.671318 18.681757 -1.083728 0.772393 10.078335 0.739769 5.427561 3.138151 1.011101 -0.000000 -77.511101 9.207492 0.004727 1.283426 10.493013 -10.559089 -45.209358 2.091682 -2.221446 31.014956 -1.515840 -6.357555 -2.580659 -1.218800 -0.000000 -34.068600 7.220710 -5.285383 -4.277334 1.223933 -5.958831 -2.874136 -5.466552 -5.872585 3.734662 10.889087 -23.026397 -12.522225 -2.237784 -0.106975 -1.243326 0.000000 0.000000 0.000000 3.152580 13.571221 2.691878 -24.516467 -7.082550 -6.187296 -2.819920 -37.274371 0.004870 -1.560092 0.701759 -0.005323 -0.165973 0.159779 -0.000000 0.000000 0.000000 0.000000 0.000000 0.000000 0.000000 18.418869 -22.076616 -0.096680 80.382844 -22.645388 5.903478 4.001103 30.828166 -0.003833 12.047097 -0.083105 -0.010678 -0.003899 0.018596 -0.000000 0.000000 0.000000 0.000000 0.000000 0.000000 0.000000 
22.084334 16.281334 4.601211 11.609196 -83.764204 -6.487891 -10.557947 5.344641 1.098779 -1.560258 7.431441 18.799802 -0.962405 0.918943 10.747408 0.727864 5.278919 5.056856 1.138200 0.000000 -80.034300 9.226665 -0.038261 1.196412 10.653883 -10.633685 -44.947373 2.031138 -2.324124 32.322182 -1.513403 -6.267523 -3.171386 -1.103300 0.000000 -32.602300 7.450874 -5.264418 -4.342611 1.268162 -5.956175 -2.894473 -5.468106 -5.869394 3.718915 10.825767 -22.938789 -12.480974 -2.258435 -0.110109 -1.231193 0.000000 0.000000 0.000000 3.157176 13.648014 2.675762 -24.817819 -6.517533 -6.087548 -2.850526 -37.119140 0.004666 -1.569951 0.734928 -0.005811 -0.168131 0.154950 -0.000000 0.000000 0.000000 0.000000 0.000000 0.000000 0.000000 18.386643 -21.938334 -0.137854 79.803822 -22.332039 5.345735 4.017667 30.541368 -0.003427 11.663534 0.010597 -0.000654 0.001036 0.017396 -0.000000 0.000000 0.000000 0.000000 0.000000 0.000000 0.000000 
21.902581 16.295436 4.565227 9.843531 -83.740508 -4.868414 -10.594354 5.474816 1.183448 -0.999940 7.179170 18.808531 -0.832674 1.068476 11.541642 0.729022 5.099301 7.053836 1.240000 0.000000 -82.294100 9.241892 -0.084576 1.124485 10.833000 -10.637273 -44.565164 1.984635 -2.397647 33.452998 -1.510381 -6.155845 -3.875715 -0.974600 -0.000000 -30.866000 7.685861 -5.232978 -4.428076 1.311665 -5.944049 -2.918338 -5.473905 -5.856212 3.705874 10.767415 -22.852774 -12.432515 -2.281438 -0.113617 -1.216925 0.000000 0.000000 0.000000 3.165775 13.727886 2.652744 -25.160547 -5.963908 -5.930373 -2.883208 -36.928270 0.004412 -1.580252 0.776566 -0.006400 -0.170332 0.149489 -0.000000 0.000000 0.000000 0.000000 0.000000 0.000000 0.000000 18.364575 -21.799154 -0.181446 79.198810 -21.987814 4.706491 4.034393 30.212561 -0.002939 11.220740 0.122306 0.010472 0.006538 0.015907 -0.000000 0.000000 0.000000 0.000000 0.000000 0.000000 0.000000 
21.719365 16.311943 4.527711 7.981052 -83.708549 -3.142005 -10.642789 5.606088 1.271888 -0.414823 6.928841 18.690771 -0.694207 1.218775 12.485702 0.745354 4.884116 9.131772 1.310400 0.000000 -84.170200 9.251480 -0.134324 1.065732 11.028809 -10.584790 -44.072087 1.950538 -2.444531 34.413768 -1.510138 -6.040562 -4.670750 -0.838500 0.000000 -28.849200 7.913572 -5.192378 -4.530310 1.351805 -5.922853 -2.945205 -5.484515 -5.833515 3.694115 10.717514 -22.766699 -12.377338 -2.307611 -0.117550 -1.200667 0.000000 0.000000 0.000000 3.186419 13.800598 2.623082 -25.547295 -5.414468 -5.722574 -2.917688 -36.706553 0.004122 -1.595020 0.825829 -0.007191 -0.172499 0.143456 -0.000000 0.000000 0.000000 0.000000 0.000000 0.000000 0.000000 18.359624 -21.657437 -0.226421 78.571615 -21.616276 3.986666 4.051276 29.849351 -0.002377 10.734942 0.252116 0.022401 0.012437 0.014121 -0.000000 0.000000 0.000000 0.000000 0.000000 0.000000 0.000000 
21.535386 16.330733 4.488624 6.129140 -83.659863 -1.414900 -10.704090 5.733906 1.363292 0.185214 6.690892 18.434096 -0.547074 1.365901 13.596970 0.779797 4.639646 11.284214 1.345800 -0.000000 -85.530600 9.254233 -0.188191 1.018920 11.235868 -10.491892 -43.482218 1.926790 -2.467987 35.211585 -1.516384 -5.942492 -5.527088 -0.700600 0.000000 -26.596200 8.120711 -5.144194 -4.645837 1.385803 -5.893184 -2.974129 -5.500584 -5.802004 3.683509 10.680211 -22.683071 -12.317812 -2.337257 -0.121879 -1.183092 0.000000 0.000000 0.000000 3.222260 13.861794 2.587410 -25.972742 -4.870743 -5.466855 -2.953765 -36.456610 0.003803 -1.615422 0.880982 -0.008085 -0.174601 0.136912 -0.000000 0.000000 0.000000 0.000000 0.000000 0.000000 0.000000 18.379397 -21.516427 -0.271696 77.923321 -21.215296 3.200684 4.067896 29.457052 -0.001751 10.218688 0.398042 0.034631 0.018581 0.012053 -0.000000 0.000000 0.000000 0.000000 0.000000 0.000000 0.000000 
